<svg width="443" height="52" viewBox="0 0 443 52" fill="none" xmlns="http://www.w3.org/2000/svg">
<path d="M31.232 13.288C29.44 12.3067 27.6053 11.496 25.728 10.856C23.8933 10.216 22.1653 9.896 20.544 9.896C18.5387 9.896 16.96 10.3013 15.808 11.112C14.656 11.9227 14.08 13.1387 14.08 14.76C14.08 15.8693 14.5067 16.872 15.36 17.768C16.256 18.6213 17.3867 19.3893 18.752 20.072C20.16 20.7547 21.6107 21.3733 23.104 21.928C24.4693 22.44 25.8133 23.0587 27.136 23.784C28.5013 24.4667 29.7173 25.3413 30.784 26.408C31.8507 27.432 32.704 28.7333 33.344 30.312C33.984 31.848 34.304 33.7467 34.304 36.008C34.304 38.3973 33.6853 40.616 32.448 42.664C31.2107 44.712 29.3973 46.376 27.008 47.656C24.6187 48.8933 21.6747 49.512 18.176 49.512C16.384 49.512 14.5493 49.3413 12.672 49C10.8373 48.616 9.024 48.0613 7.232 47.336C5.44 46.568 3.712 45.608 2.048 44.456L6.144 37.224C7.25333 38.0347 8.448 38.76 9.728 39.4C11.0507 39.9973 12.3733 40.4667 13.696 40.808C15.0187 41.1493 16.2347 41.32 17.344 41.32C18.4533 41.32 19.5627 41.1707 20.672 40.872C21.824 40.5307 22.7627 39.976 23.488 39.208C24.256 38.44 24.64 37.3733 24.64 36.008C24.64 35.0693 24.32 34.216 23.68 33.448C23.0827 32.68 22.2507 31.976 21.184 31.336C20.16 30.696 19.0293 30.1413 17.792 29.672C16.3413 29.1173 14.848 28.4773 13.312 27.752C11.776 27.0267 10.3253 26.152 8.96 25.128C7.63733 24.0613 6.54933 22.76 5.696 21.224C4.88533 19.6453 4.48 17.7253 4.48 15.464C4.48 12.7333 5.07733 10.3653 6.272 8.36C7.50933 6.35466 9.23733 4.776 11.456 3.624C13.6747 2.42933 16.2347 1.768 19.136 1.64C22.9333 1.64 26.0053 2.088 28.352 2.984C30.7413 3.88 32.8747 4.94667 34.752 6.184L31.232 13.288ZM40.1925 1.896H71.9365V10.856H60.4805V49H51.2005V10.856H40.1925V1.896ZM89.2125 31.592C89.2125 33.0853 89.6605 34.5147 90.5565 35.88C91.4525 37.2453 92.6258 38.3547 94.0765 39.208C95.5698 40.0613 97.1912 40.488 98.9405 40.488C100.861 40.488 102.567 40.0613 104.061 39.208C105.554 38.3547 106.727 37.2453 107.581 35.88C108.477 34.5147 108.925 33.0853 108.925 31.592V1.896H118.077V31.784C118.077 35.24 117.223 38.312 115.517 41C113.81 43.6453 111.506 45.736 108.604 47.272C105.703 48.7653 102.482 49.512 98.9405 49.512C95.4418 49.512 92.2418 48.7653 89.3405 47.272C86.4818 45.736 84.1992 43.6453 82.4925 41C80.7858 38.312 79.9325 35.24 79.9325 31.784V1.896H89.2125V31.592ZM129.268 49V1.896H143.348C148.084 1.896 152.116 2.6 155.444 4.008C158.772 5.416 161.438 7.29333 163.444 9.64C165.492 11.9867 166.985 14.6107 167.924 17.512C168.862 20.4133 169.332 23.336 169.332 26.28C169.332 29.7787 168.692 32.936 167.412 35.752C166.174 38.5253 164.468 40.9147 162.292 42.92C160.116 44.8827 157.598 46.3973 154.74 47.464C151.881 48.488 148.852 49 145.652 49H129.268ZM138.548 40.04H144.052C146.398 40.04 148.532 39.7413 150.452 39.144C152.372 38.504 154.014 37.5867 155.38 36.392C156.788 35.1973 157.854 33.704 158.58 31.912C159.348 30.0773 159.732 27.9867 159.732 25.64C159.732 22.568 159.22 20.072 158.196 18.152C157.214 16.1893 155.977 14.6747 154.484 13.608C153.033 12.5413 151.54 11.816 150.004 11.432C148.468 11.0053 147.166 10.792 146.1 10.792H138.548V40.04ZM178.643 1.896H187.923V49H178.643V1.896ZM269.622 1.896L283.382 35.816L278.006 34.728L290.486 1.896H301.494L279.99 51.176L258.486 1.896H269.622ZM309.643 1.896H318.923V49H309.643V1.896ZM356.232 13.288C354.44 12.3067 352.605 11.496 350.728 10.856C348.893 10.216 347.165 9.896 345.544 9.896C343.539 9.896 341.96 10.3013 340.808 11.112C339.656 11.9227 339.08 13.1387 339.08 14.76C339.08 15.8693 339.507 16.872 340.36 17.768C341.256 18.6213 342.387 19.3893 343.752 20.072C345.16 20.7547 346.611 21.3733 348.104 21.928C349.469 22.44 350.813 23.0587 352.136 23.784C353.501 24.4667 354.717 25.3413 355.784 26.408C356.851 27.432 357.704 28.7333 358.344 30.312C358.984 31.848 359.304 33.7467 359.304 36.008C359.304 38.3973 358.685 40.616 357.448 42.664C356.211 44.712 354.397 46.376 352.008 47.656C349.619 48.8933 346.675 49.512 343.176 49.512C341.384 49.512 339.549 49.3413 337.672 49C335.837 48.616 334.024 48.0613 332.232 47.336C330.44 46.568 328.712 45.608 327.048 44.456L331.144 37.224C332.253 38.0347 333.448 38.76 334.728 39.4C336.051 39.9973 337.373 40.4667 338.696 40.808C340.019 41.1493 341.235 41.32 342.344 41.32C343.453 41.32 344.563 41.1707 345.672 40.872C346.824 40.5307 347.763 39.976 348.488 39.208C349.256 38.44 349.64 37.3733 349.64 36.008C349.64 35.0693 349.32 34.216 348.68 33.448C348.083 32.68 347.251 31.976 346.184 31.336C345.16 30.696 344.029 30.1413 342.792 29.672C341.341 29.1173 339.848 28.4773 338.312 27.752C336.776 27.0267 335.325 26.152 333.96 25.128C332.637 24.0613 331.549 22.76 330.696 21.224C329.885 19.6453 329.48 17.7253 329.48 15.464C329.48 12.7333 330.077 10.3653 331.272 8.36C332.509 6.35466 334.237 4.776 336.456 3.624C338.675 2.42933 341.235 1.768 344.136 1.64C347.933 1.64 351.005 2.088 353.352 2.984C355.741 3.88 357.875 4.94667 359.752 6.184L356.232 13.288ZM365.193 1.896H396.937V10.856H385.481V49H376.201V10.856H365.193V1.896ZM396.768 49L418.016 0.0399971H418.528L439.776 49H429.024L415.456 14.568L422.176 9.96L405.92 49H396.768ZM411.296 31.976H425.44L428.704 39.784H408.416L411.296 31.976Z" fill="white"/>
<circle cx="227" cy="25" r="24" fill="#913838"/>
</svg>
